<?xml version="1.0" encoding="UTF-8" standalone="no"?>
<!DOCTYPE svg PUBLIC "-//W3C//DTD SVG 1.1//EN" "http://www.w3.org/Graphics/SVG/1.1/DTD/svg11.dtd">
<svg width="100%" height="100%" viewBox="0 0 256 256" version="1.1" xmlns="http://www.w3.org/2000/svg" xmlns:xlink="http://www.w3.org/1999/xlink" xml:space="preserve" xmlns:serif="http://www.serif.com/" style="fill-rule:evenodd;clip-rule:evenodd;stroke-linecap:round;stroke-linejoin:round;stroke-miterlimit:1.5;">
    <g transform="matrix(0.707107,0.707107,-0.707107,0.707107,160.631,-60.3694)">
        <circle cx="109.251" cy="105.452" r="73.453" style="fill:rgb(206,248,255);fill-opacity:0.05;"/>
        <path d="M109.251,31.999C149.791,31.999 182.704,64.912 182.704,105.452C182.704,145.992 149.791,178.906 109.251,178.906C68.711,178.906 35.797,145.992 35.797,105.452C35.797,64.912 68.711,31.999 109.251,31.999ZM109.251,51.999C79.749,51.999 55.797,75.951 55.797,105.452C55.797,134.954 79.749,158.906 109.251,158.906C138.753,158.906 162.704,134.954 162.704,105.452C162.704,75.951 138.753,51.999 109.251,51.999Z" style="fill:white;"/>
    </g>
    <g transform="matrix(0.707107,0.707107,-0.707107,0.707107,172.502,31.4041)">
        <path d="M35.963,231.801L35.963,115.521" style="fill:none;stroke:white;stroke-width:20px;"/>
    </g>
</svg>
